<?xml version="1.0" encoding="utf-8" ?>
<svg xmlns="http://www.w3.org/2000/svg" xmlns:xlink="http://www.w3.org/1999/xlink" width="1024" height="1024">
	<path fill="#D400F1" transform="scale(2 2)" d="M287.251 97.8312C298.119 88.8098 318.066 84.3344 331.602 85.5743C369.81 89.0743 398.453 123.363 394.491 161.684C393.708 169.252 391.242 175.837 389.024 182.998C414.375 202.811 421.158 229.536 411.637 259.308C410.942 256.369 412.027 249.993 407.248 250.089L406.951 250.553C406.783 250.448 406.755 249.642 406.604 249.298C414.81 207.914 385.4 175.62 343.989 178.003L343.904 177.779C344.137 177.369 349.942 176.42 346.027 172.477C344.885 171.328 341.799 171.571 340.209 171.498C353.134 167.862 370.956 173.444 382.5 178.933C407.116 123.161 340.059 64.3375 286.072 108.279L285.595 108.155C285.582 105.927 289.673 104.072 287.473 99.3985L286.947 99.3498C286.576 98.687 287.067 98.5922 287.251 97.8312Z"/>
	<defs>
		<linearGradient id="gradient_0" gradientUnits="userSpaceOnUse" x1="123.99007" y1="372.20331" x2="351.64896" y2="172.30899">
			<stop offset="0" stop-color="#6801FA"/>
			<stop offset="1" stop-color="#D006FC"/>
		</linearGradient>
	</defs>
	<path fill="url(#gradient_0)" transform="scale(2 2)" d="M262.445 133.333C263.952 120.462 276.598 104.595 287.251 97.8312C287.067 98.5922 286.576 98.687 286.947 99.3498L287.473 99.3985C289.673 104.072 285.582 105.927 285.595 108.155L286.072 108.279C277.786 116.793 272.74 123.467 269.014 135.028C289.082 139.376 306.165 153.76 314.513 172.42C315.579 174.805 316.502 177.319 317.833 179.569C323.577 176.114 333.518 171.573 340.209 171.498C341.799 171.571 344.885 171.328 346.027 172.477C349.942 176.42 344.137 177.369 343.904 177.779L343.989 178.003C334.783 179.163 327.332 182.043 319.579 187.122C326.9 220.532 314.154 250.942 290.084 273.485C306.068 348.68 391.776 308.864 406.604 249.298C406.755 249.642 406.783 250.448 406.951 250.553L407.248 250.089C412.027 249.993 410.942 256.369 411.637 259.308C397.115 296.873 366.871 322.273 325.11 321.748C324.196 326.249 322.852 336.085 320.094 339.452C314.462 346.324 307.858 337.754 303.587 334.026C291.579 354.059 278.734 373.569 266.32 393.344C271.717 391.276 277.794 390.522 282.992 393.628C296.75 401.849 283.541 423.592 262.445 409.643L294.392 464.623C295.899 467.227 299.416 471.131 298.649 474.383C296.472 483.615 289.19 469.25 288.447 467.992L265.565 428.813C263.541 425.327 261.452 422.069 259.743 418.398C259.308 434.83 261.359 456.985 259.561 472.552C258.964 477.717 252.431 480.49 252.478 467.243L252.488 454.775C252.49 442.289 252.343 429.79 252.485 417.305C248.99 422.286 246.445 427.986 243.482 433.288L226.42 463.421C224.897 466.102 219.976 478.462 215.742 477.04C210.043 475.127 217.481 465.443 218.917 462.705C227.141 447.017 240.431 427.837 246.91 412.104L247.087 411.667C242.601 413.761 238.113 414.745 233.294 413.103C215.957 407.195 225.993 384.407 247.087 393.344C233.616 374.668 222.086 354.107 208.514 335.151C204.941 337.378 203.018 341.611 198.565 342.294C188.777 343.797 187.942 328.199 186.912 321.748C183.836 321.536 180.747 321.795 177.666 321.752C116.282 320.91 61.5387 224.633 123.471 182.998C106.533 145.958 124.152 102.558 162.868 89.03C199.318 76.2945 237.725 97.6768 250.081 133.333C254.198 133.384 258.326 133.311 262.445 133.333ZM178.611 93.1854C143.612 97.7936 120.409 127.906 125.055 162.979C125.767 168.349 127.081 174.307 130.031 178.933C146.466 170.372 166.945 167.722 184.562 174.146C188.001 175.523 191.226 176.909 194.351 178.933C201.232 159.025 220.691 137.372 242.714 135.028C233.003 105.081 208.171 92.9205 178.611 93.1854ZM252.485 140.734C237.882 141.238 224.342 148.608 214.456 159.125C178.046 197.864 206.938 281.093 259.743 279.234C311.738 272.383 334.357 186.858 289.978 152.846C279.836 145.074 265.492 139.205 252.485 140.734ZM157.828 178.003C118.218 182.089 93.5479 218.78 107.184 256.954C115.627 280.589 136.607 303.33 160.767 311.498C163.986 312.587 167.532 313.083 170.625 314.486C174.193 314.382 177.774 314.727 181.327 314.542C204.935 313.308 216.143 293.927 222.048 273.485C199.048 251.775 183.705 217.243 192.342 185.767C180.62 179.915 170.977 177.431 157.828 178.003ZM228.418 277.965C223.429 289.946 222.386 295.614 213.491 306.831C215.87 308.276 223.075 314.925 224.841 317.099C231.559 325.371 222.503 330.284 214.624 330.856C217.599 336.363 221.509 341.479 224.959 346.708L244.335 376.536C247.157 381.094 250.465 385.643 252.485 390.62L252.485 305.726C233.281 311.636 237.264 296.68 241.199 284.265C236.922 282.215 232.357 280.652 228.418 277.965ZM283.44 277.965C279.423 280.603 275.397 282.885 270.758 284.265C274.935 295.519 280.104 313.211 259.743 305.726L259.743 390.62C262.734 386.71 265.172 382.157 267.773 377.969L285.284 350.071C289.19 343.768 292.956 336.658 297.585 330.856C274.579 327.301 287.663 316.525 297.585 306.831C283.974 290.637 285.236 279.01 283.44 277.965ZM248.208 285.983C247.592 288.279 243.421 300.351 245.858 300.365C253.906 300.409 251.987 295.019 263.087 299.578C272.518 302.814 266.139 294 264.324 285.983C259.256 286.56 253.253 287.037 248.208 285.983ZM208.514 312.164C203.669 314.733 199.64 317.944 194.351 319.719C194.763 325.221 195.885 330.729 197.302 336.056L201.241 331.814C209.391 322.615 208.801 326.205 219.919 322.883C218.022 320.879 210.522 312.615 208.514 312.164ZM303.587 312.164C299.291 315.174 295.232 318.924 291.795 322.883C303.592 322.491 303.651 324.752 310.79 330.856C312.058 332.386 313.374 333.783 314.815 335.151C315.666 329.97 316.491 324.802 317.833 319.719C312.658 317.956 307.599 316.033 303.587 312.164ZM237.15 398.591C227.153 400.863 232.173 407.381 240.2 407.439C249.638 402.834 245.276 397.375 237.15 398.591ZM274.32 398.591C270.557 399.015 268.029 400.366 265.369 403.028C268.088 405.631 270.723 406.666 274.32 407.439C283.782 408.198 283.449 398.331 274.32 398.591Z"/>
	<path fill="#D400F1" transform="scale(2 2)" d="M145.306 152.505C132.72 150.793 147.395 114.439 174.166 109.826C176.663 109.874 178.461 111.948 177.912 114.442C176.837 119.324 154.386 118.671 149.303 142.056C148.361 146.393 149.774 150.08 145.306 152.505Z"/>
	<path fill="#D400F1" transform="scale(2 2)" d="M367.501 152.505C358.954 152.816 365.315 129.722 343.167 119.717C339.732 118.166 328.224 114.76 335.971 109.826C352.916 107.481 379.08 145.215 367.501 152.505Z"/>
	<path fill="#D400F1" transform="scale(2 2)" d="M218.42 204.222C206.581 205.826 216.427 162.933 247.087 156.561C249.38 156.315 252.134 158.118 251.633 160.66C250.687 165.464 226.992 165.798 221.776 193.627C221.012 197.707 222.457 201.792 218.42 204.222Z"/>
	<path fill="#D400F1" transform="scale(2 2)" d="M389.024 250.409C383.353 248.869 384.785 246.342 385.727 242.025C388.283 230.316 384.199 217.297 374.583 209.809C372.305 208.036 363.006 202.675 371.264 200.29C378.884 200.149 388.084 212.831 390.855 218.996C393.578 225.054 397.286 246.997 389.024 250.409Z"/>
	<path fill="#2400EE" transform="scale(2 2)" d="M124.816 251.55C122.269 251.613 121.01 250.702 120.17 248.187C114.477 231.131 122.22 205.983 140.107 200.29C149.047 201.974 141.558 207.58 138.233 209.911C128.081 217.028 123.513 229.835 126.319 241.801C127.228 245.677 129.978 249.723 124.816 251.55Z"/>
</svg>
