<?xml version="1.0" encoding="utf-8" ?>
<svg xmlns="http://www.w3.org/2000/svg" xmlns:xlink="http://www.w3.org/1999/xlink" width="1024" height="1024">
	<path fill="#D400F1" transform="scale(2 2)" d="M161.049 258.622C170.221 258.48 179.41 258.617 188.583 258.622L188.583 220.312C166.356 220.547 172.154 218.234 181.486 202.593C150.361 186.598 126.036 137.739 143.231 104.339C166.173 59.7779 231.738 66.3673 246.591 114.929C255.659 144.577 231.764 190.769 203.338 202.593C214.593 221.332 215.207 220.242 195.699 220.312L195.688 245.602C195.683 249.919 195.438 254.317 195.699 258.622L296.338 258.622C296.499 248.921 296.334 239.199 296.338 229.496C290.826 229.519 285.222 229.748 279.72 229.496C281.101 225.497 285.854 216.183 288.837 213.313C284.855 210.435 280.65 207.871 276.992 204.568C256.946 186.467 242.374 151.318 260.32 127.051C287.374 90.4687 346.779 109.085 346.244 156.034C391.648 140.128 410.251 197.361 371.084 221.444C379.987 236.94 380.312 234.501 363.765 235.159L363.765 258.622C369.416 258.795 375.105 258.624 380.761 258.624L414.7 258.628C420.765 258.628 427.345 257.93 433.333 258.622C437.461 261.748 435.524 272.589 435.523 277.914L435.514 297.977C435.509 309.94 438.508 313.409 426.062 312.726L426.057 421.564C426.057 423.024 427.593 443.314 420.891 436.18C417.962 433.063 419.319 423.513 419.318 419.502L419.312 312.726L395.007 312.726L395.02 377.177C395.026 379.54 395.95 385.956 394.242 387.838C393.039 389.164 390.354 389.028 389.263 387.627C387.407 385.245 388.27 371.376 388.263 367.615L388.267 330.655C388.27 324.707 388.529 318.659 388.262 312.726L303.945 312.726C303.812 312.648 274.034 312.195 266.42 312.135L231.65 312.168C225.732 312.146 218.739 312.738 212.977 312.039C214.916 311.864 218.831 311.042 219.786 309.265L219.679 308.912L218.48 308.292L218.359 307.839L218.966 307.069C217.54 306.452 215.495 307.096 214.143 306.372C215.263 306.182 216.56 306.454 217.708 306.447L280.888 305.752C284.137 305.763 287.469 305.998 290.703 305.763L290.971 305.741C294.026 305.325 297.612 305.714 300.73 305.72L415.619 305.754C419.966 305.792 424.295 306.073 428.636 305.741L428.636 265.33L259.184 265.327C231.111 265.327 202.99 265.675 174.922 265.33C179.052 265.05 185.942 265.674 189.369 263.339C190.695 255.815 166.508 258.894 161.049 258.622ZM188.583 81.3017C163.058 81.894 143.307 106.35 144.127 131.022C144.774 150.51 158.483 175.454 172.343 188.201C178.69 194.038 187.659 199.846 196.694 197.912C220.866 189.833 242.6 154.014 241.696 128.515C240.761 102.135 215.226 76.9252 188.583 81.3017ZM296.338 114.847C247.673 120.363 250.742 175.267 284.686 201.791C289.719 205.724 296.147 208.61 302.65 207.573C325.745 202.357 343.171 168.326 338.044 145.778C333.825 127.22 315.677 112.686 296.338 114.847ZM359.082 159.83C354.089 160.594 349.332 162.177 345.449 165.537C342.396 175.357 339.916 179.316 336.261 188.254C340.341 200.009 349.011 217.583 363.765 216.715C376.724 213.8 387.986 193.621 385.137 181.059C382.539 169.607 371.926 157.792 359.082 159.83ZM331.38 195.184C325.465 201.938 319.08 208.605 310.754 212.326C312.956 216.789 317.954 225.175 319.183 229.496C313.835 229.644 308.473 229.48 303.123 229.496L303.123 258.622L325.981 258.622L356.483 258.622L356.483 235.159C342.104 235.355 343.054 232.726 351.588 221.444C344.263 216.36 338.704 210.519 334.731 202.487C333.607 200.216 332.801 197.216 331.38 195.184ZM187.748 205.047C186.154 207.898 184.487 210.647 182.592 213.313C187.289 213.609 191.993 213.275 196.694 213.313L202.09 213.313C200.442 210.448 198.713 207.671 196.694 205.047C193.718 205.461 190.732 205.244 187.748 205.047ZM296.338 214.537C294.232 216.982 292.609 219.766 290.971 222.534L302.65 222.534L308.045 222.534C306.667 219.896 305.041 217.304 303.945 214.537C301.41 214.546 298.873 214.57 296.338 214.537ZM357.963 223.75C357.004 225.228 356.084 226.683 355.298 228.262L364.266 228.262C368.405 228.439 366.424 226.297 365.278 223.75C362.84 223.76 360.4 223.798 357.963 223.75Z"/>
	<path fill="#D400F1" transform="scale(2 2)" d="M161.049 137.889C155.094 138.77 155.837 133.905 156.173 129.431C157.577 110.788 169.092 97.4054 187.748 94.3342C189.999 93.9426 192.535 95.599 191.984 98.1393C190.714 103.987 166.824 99.6124 162.986 129.45C162.564 132.732 164.18 135.758 161.049 137.889Z"/>
	<path fill="#D400F1" transform="scale(2 2)" d="M162.983 150.043C158.398 150.197 157.67 145.81 161.049 143.518C166.262 143.233 167.315 147.886 162.983 150.043Z"/>
	<defs>
		<linearGradient id="gradient_0" gradientUnits="userSpaceOnUse" x1="77.899399" y1="348.18509" x2="220.52095" y2="344.02817">
			<stop offset="0" stop-color="#2E14EF"/>
			<stop offset="1" stop-color="#8011F0"/>
		</linearGradient>
	</defs>
	<path fill="url(#gradient_0)" transform="scale(2 2)" d="M85.3406 312.726C75.1978 312.294 76.4438 313.212 76.4612 302.477L76.4825 274.095C76.47 270.613 75.5258 262.278 77.7276 259.39C81.1062 257.409 103.478 258.619 108.491 258.621L161.049 258.622C166.508 258.894 190.695 255.815 189.369 263.339C185.942 265.674 179.052 265.05 174.922 265.33C164.628 265.484 154.314 265.327 144.017 265.325L83.433 265.33L83.433 305.741L283.996 305.714C286.288 305.707 288.694 305.551 290.971 305.741L290.703 305.763C287.469 305.998 284.137 305.763 280.888 305.752L217.708 306.447C216.56 306.454 215.263 306.182 214.143 306.372C215.495 307.096 217.54 306.452 218.966 307.069L218.359 307.839L218.48 308.292L219.679 308.912L219.786 309.265C218.831 311.042 214.916 311.864 212.977 312.039C218.739 312.738 225.732 312.146 231.65 312.168L266.42 312.135C274.034 312.195 303.812 312.648 303.945 312.726L124.974 312.726L124.97 361.364C124.965 366.683 127.7 388.756 121.48 389.361C116.395 389.855 117.713 379.496 117.727 376.592L117.748 312.726L92.5707 312.726L92.5553 418.919C92.5757 421.874 94.4252 437.836 89.2559 437.711C83.3043 437.567 85.3336 423.707 85.3374 419.55L85.3406 312.726Z"/>
</svg>
