<?xml version="1.0" encoding="utf-8" ?>
<svg xmlns="http://www.w3.org/2000/svg" xmlns:xlink="http://www.w3.org/1999/xlink" width="1024" height="1024">
	<defs>
		<linearGradient id="gradient_0" gradientUnits="userSpaceOnUse" x1="59.862682" y1="294.92664" x2="460.95566" y2="266.4162">
			<stop offset="0" stop-color="#690DF4"/>
			<stop offset="1" stop-color="#F501EE"/>
		</linearGradient>
	</defs>
	<path fill="url(#gradient_0)" transform="scale(2 2)" d="M175.855 119.855C193.338 92.1901 232.066 76.8851 263.874 79.4108C278.867 80.6013 304.211 88.577 315.591 99.5144C315.592 99.5149 328.165 112.767 329.723 113.535C330.697 114.114 336.733 123.061 337.418 119.855C339.308 117.723 352.552 116.568 355.985 116.365C410.024 113.17 454.189 159.304 457.161 211.482C459.235 247.883 440.244 292.198 416.428 318.872C401.579 335.502 389.252 344.749 368.728 352.261L377.429 362.885C380.022 366.061 387.372 374.672 378.058 376.118C373.544 376.819 363.898 375.923 358.626 375.94C348.793 399.981 346.964 428.093 351.639 453.505C352.827 459.959 355.381 466.104 356.518 472.506C354.806 477.616 349.631 478.373 347.293 472.951C338.836 453.336 338.58 419.464 342.242 399.056C343.664 391.132 346.182 383.708 348.136 375.94C340.162 375.916 329.696 379.226 327.706 370.492C329.253 364.242 336.499 357.808 340.014 352.261C332.024 349.443 323.585 346.117 317.052 340.554C308.46 335.379 294.817 319.029 288.897 310.65C282.134 314.227 278.075 316.698 270.591 319.081C273.219 322.592 284.513 334.842 284.557 337.764C284.68 345.845 267.425 342.921 262.046 342.906C250.784 376.171 250.852 415.047 260.066 448.878C260.716 451.263 268.479 469.212 258.284 466.554C253.356 465.269 251.767 453.563 250.611 449.559C240.641 415.013 242.119 377.262 252.077 342.906C223.224 342.801 221.827 344.482 241.594 319.081C234.902 316.856 229.39 314.311 223.37 310.65C207.277 328.559 196.499 344.082 170.909 351.53C173.891 354.921 181.803 364.532 183.655 368.181C189.126 378.958 169.194 375.956 164.092 375.94C168.574 394.107 170.926 408.42 170.928 427.424C170.928 436.408 169.129 466.401 164.442 474.387C162.034 478.491 155.803 477.128 155.489 472.444C155.376 470.761 158.123 461.983 158.648 459.283C164.65 428.382 161.067 405.396 154.49 375.94C146.517 375.367 132.129 379.612 129.919 370.492C130.978 366.444 139.349 355.803 142.145 351.53C102.229 340.863 72.1285 291.712 61.0744 255.039C52.1149 225.315 51.5384 197.052 66.5561 169.153C85.8055 133.392 123.816 112.194 164.186 116.878C168.276 117.352 172.193 117.856 175.855 119.855ZM321.813 117.808C317.378 113.832 313.405 109.656 308.614 106.048C272.919 79.1622 219.41 84.1621 189.506 117.562C148.755 163.077 164.142 230.045 198.614 274.255C212.634 292.234 233.966 312.92 258.367 311.411C288.446 309.55 312.101 279.803 325.597 255.226C336.499 234.747 345.391 209.099 346.91 186.134C348.596 160.653 338.257 136.7 321.813 117.808ZM341.818 128.548C343.368 132.029 345.47 135.308 347.075 138.791C359.945 166.733 358.212 189.095 350.343 218.22C345.918 234.603 335.884 260.873 324.844 274.461C319.357 284.761 305.605 298.005 296.964 305.457C304.714 316.158 310.22 321.371 319.278 330.165C320.954 330.85 322.898 333.041 324.446 334.146C365.467 363.414 407.394 323.293 427.163 287.963C443.024 259.619 453.609 224.019 444.379 191.786C432.113 148.949 386.719 115.766 341.818 128.548ZM148.119 125.893C97.9531 128.668 61.8983 173.336 64.7972 222.758C66.9188 258.928 89.1405 302.004 115.63 325.451C124.688 333.469 135.943 341.192 148.119 342.906C174.111 349.622 202.097 324.513 215.191 304.7C170.613 269.608 140.621 197.04 162.721 143.028C164.974 137.522 167.749 132.668 170.909 127.64C163.6 126.063 155.581 125.35 148.119 125.893ZM252.077 320.979C249.2 324.311 244.952 329.565 243.164 333.475L260.943 333.475C264.158 333.483 267.376 333.515 270.591 333.475C266.813 329.771 263.67 325.504 260.943 320.979L252.077 320.979ZM160.242 353.472L152.637 353.472C149.707 357.809 146.557 361.943 143.945 366.491C147.508 366.281 150.931 366.074 154.49 366.491C159.98 366.496 165.427 366.163 170.909 366.491C168.914 363.949 162.446 355.007 160.488 353.474L160.242 353.472ZM350.088 353.999C347.806 358.484 344.297 362.146 341.818 366.491L359.635 366.491L368.728 366.491C365.443 363.517 360.931 357.858 358.626 353.999C355.778 353.935 352.935 354.027 350.088 353.999Z"/>
	<path fill="#D400F1" transform="scale(2 2)" d="M315.591 99.5144C320.337 102.707 324.482 106.926 328.41 111.063C330.501 113.265 334.409 120.087 337.418 119.855C336.733 123.061 330.697 114.114 329.723 113.535C328.165 112.767 315.592 99.5149 315.591 99.5144Z"/>
	<path fill="#D400F1" transform="scale(2 2)" d="M189.482 181.32C182.581 181.101 183.873 174.817 184.405 169.951C187.992 137.151 210.357 113.61 243.164 108.336C246.673 107.768 249.009 111.752 247.581 114.835C245.889 118.493 234.059 120.111 229.557 121.747C211.518 128.304 198.032 145.665 194.698 164.469C193.667 170.281 195.883 179.091 189.482 181.32Z"/>
	<path fill="#2400EE" transform="scale(2 2)" d="M89.936 216.907C82.3301 219.264 82.9511 210.757 83.4564 205.835C86.6663 174.57 109.408 149.611 140.666 144.333C144.352 143.948 148.232 146.031 146.83 150.463C145.483 154.723 139.366 154.35 135.867 155.156C111.885 160.68 95.3244 183.604 93.2306 207.499C92.8888 211.4 93.9814 214.862 89.936 216.907Z"/>
	<path fill="#D400F1" transform="scale(2 2)" d="M197.666 220.608C192.535 220.141 183.614 202.275 193.806 199.562C195.859 199.893 197.237 200.534 198.036 202.614C200.346 208.623 205.714 218.146 197.666 220.608Z"/>
	<path fill="#D400F1" transform="scale(2 2)" d="M257.14 273.499C258.612 273.07 260.278 272.962 261.801 272.731C290.506 268.39 306.496 236.186 312.541 210.486C313.512 206.358 313.445 202.316 317.812 200.551C325.809 200.49 322.494 209.845 321.3 214.654C313.816 244.824 294.092 278.902 260.071 282.344C254.678 282.066 253.469 276.779 257.14 273.499Z"/>
	<path fill="#D400F1" transform="scale(2 2)" d="M212.906 247.735C207.385 248.091 196.644 234.242 205.252 230.04C210.207 229.651 213.5 236.393 215.807 240.281C217.924 243.851 216.334 246.077 212.906 247.735Z"/>
	<path fill="#D400F1" transform="scale(2 2)" d="M367.214 317.023C362.926 317.083 360.296 311.89 363.814 308.842C365.926 307.013 369.763 306.266 372.342 305.121C393.054 295.929 408.676 268.445 414.2 247.691C415.98 241.002 414.724 232.723 421.265 232.067C427.433 230.871 425.605 239.23 424.993 242.462C419.713 270.355 396.925 310.649 367.214 317.023Z"/>
	<path fill="#2400EE" transform="scale(2 2)" d="M95.8107 253.622C89.9958 253.891 81.9771 233.982 91.1107 232.067C97.5443 232.016 99.0159 244.313 100.458 249.082C99.3464 251.583 98.335 252.571 95.8107 253.622Z"/>
	<path fill="#2400EE" transform="scale(2 2)" d="M112.269 280.434C106.741 280.904 94.7546 267.319 104.045 262.762C108.517 262.535 122.232 275.434 112.269 280.434Z"/>
</svg>
