<?xml version="1.0" encoding="utf-8" ?>
<svg xmlns="http://www.w3.org/2000/svg" xmlns:xlink="http://www.w3.org/1999/xlink" width="1024" height="1024">
	<path fill="#D400F1" transform="scale(2 2)" d="M120.291 289.535C117.547 287.852 109.742 278.041 107.44 275.125C84.8033 246.435 71.7014 209.587 76.0869 172.898C82.4065 120.026 126.345 75.8857 180.088 72.9812C183.856 72.7776 187.614 72.5959 191.371 73.0488C189.919 73.482 187.841 73.0914 186.854 74.3754L186.864 74.302L186.897 74.5792L187.867 74.9769C186.231 77.2018 176.181 76.2871 174.331 75.6678L175.006 75.1137L174.93 74.7638C169.839 74.6154 168.801 73.8251 170.293 79.7903C171.969 81.0715 175 80.7808 177.03 80.6096L177.249 80.967C180.308 81.1294 188.667 77.7305 193.384 80.967C182.822 80.389 172.216 81.5835 161.928 83.991C155.15 85.9994 148.422 88.2467 142.05 91.3396C94.0258 114.652 73.26 170.558 88.2013 220.912C93.9644 240.335 104.934 260.785 118.544 276C120.311 277.976 123.249 280.303 124.545 282.477L124.134 282.531C121.44 280.22 119.354 278.498 116.508 282.074C116.136 285.01 120.443 287.85 120.291 289.535Z"/>
	<defs>
		<linearGradient id="gradient_0" gradientUnits="userSpaceOnUse" x1="414.37369" y1="301.15445" x2="125.4886" y2="188.10674">
			<stop offset="0" stop-color="#300AF1"/>
			<stop offset="1" stop-color="#BB05F7"/>
		</linearGradient>
	</defs>
	<path fill="url(#gradient_0)" transform="scale(2 2)" d="M191.371 73.0488C221.694 72.5865 255.809 92.0615 274.539 114.787C303.57 98.9909 356.776 100.415 383.729 121.666C388.533 124.299 393.091 128.242 397.158 131.891C447.652 177.202 447.516 251.055 407.719 303.345C391.462 324.705 366.243 344.322 341.907 355.524C345.648 363.292 352.832 374.602 355.506 382.164C352.164 390.209 337.453 386.506 328.441 386.51L328.453 411.81C328.471 415.945 328.931 420.543 328.365 424.606C327.882 428.075 323.742 429.846 321.18 427.046C318.899 424.554 320.027 413.993 320.038 410.669L320.047 386.51L305.297 386.534C289.502 386.553 290.865 384.809 298.31 370.242C300.803 365.363 303.208 360.435 305.638 355.524C294.173 350.561 275.004 339.453 265.434 330.636C266.003 329.514 260.203 325.549 259.17 324.604C257.041 322.658 239.592 303.913 239.38 303.81L238.716 304.328C231.651 307.702 224.191 314.976 215.618 319.202L215.879 319.674C212.702 321.669 209.232 323.067 205.967 324.9L214.434 341.071C216.228 344.462 218.361 347.931 219.644 351.551C217.379 357.012 213.662 355.575 208.736 355.547L192.458 355.524L192.483 370.056C192.505 372.864 192.763 375.907 192.443 378.694C192.02 382.385 187.706 383.748 185.107 380.95C183.183 378.879 184.048 372.887 184.053 370.322L184.082 355.524C179.871 355.531 161.344 356.167 158.874 354.871C153.455 352.028 159.636 344.164 161.4 340.766L169.507 324.9C151.44 315.643 134.039 304.733 120.291 289.535C120.443 287.85 116.136 285.01 116.508 282.074C119.354 278.498 121.44 280.22 124.134 282.531L124.545 282.477C128.803 285.981 132.382 290.481 136.594 294.112C146.941 303.031 170.224 318.988 183.707 321.218C199.247 323.788 221.698 306.994 233.829 298.351C190.106 238.196 202.069 157.299 266.968 118.404C248.821 96.9172 221.29 83.3224 193.384 80.967C188.667 77.7305 180.308 81.1294 177.249 80.967L177.03 80.6096C175 80.7808 171.969 81.0715 170.293 79.7903C168.801 73.8251 169.839 74.6154 174.93 74.7638L175.006 75.1137L174.331 75.6678C176.181 76.2871 186.231 77.2018 187.867 74.9769L186.897 74.5792L186.864 74.302L186.854 74.3754C187.841 73.0914 189.919 73.482 191.371 73.0488ZM383.729 130.622C380.326 129.127 377.351 127.033 374.136 125.205C294.718 80.0506 201.103 151.658 217.408 241.983C220.755 260.526 229.256 277.162 239.627 292.715C242.863 289.905 245.747 286.745 248.844 283.791C248.898 284.381 248.891 284.917 248.844 285.508C249.516 286.591 249.341 289.655 250.21 290.157L250.777 289.632C252.429 294.331 236.126 296.301 249.348 304.906L249.914 304.977C251.445 305.934 253.795 308.978 255.121 310.377C268.843 324.862 300.392 348.197 320.988 352.241C340.947 356.16 385.39 317.807 397.893 302.844C438.775 253.919 440.201 181.99 391.978 137.89C389.563 135.681 385.224 133.529 383.729 130.622ZM177.249 328.174C173.677 333.755 169.904 341.415 167.116 347.525L200.875 347.525C203.431 347.534 205.994 347.583 208.549 347.525C205.699 340.936 201.825 334.718 198.801 328.174C190.736 329.987 185.351 330.051 177.249 328.174ZM334.463 358.575C326.14 360.635 322.149 361.47 313.79 358.575C310.286 365.009 306.38 371.639 303.731 378.461C306.217 378.488 308.702 378.527 311.187 378.461C322.184 378.468 333.204 378.62 344.199 378.461C343.325 376.301 335.178 359.082 334.463 358.575Z"/>
	<path fill="#D400F1" transform="scale(2 2)" d="M111.497 192.756C102.914 196.505 105.004 183.856 105.226 179.179C107.181 138.101 146.383 100.82 187.915 103.053C192.271 101.448 197.337 105.512 193.615 109.22C191.516 111.31 186.201 110.694 183.351 110.797C146.335 112.142 114.179 146.144 113.016 182.74C112.909 186.128 113.98 190.081 111.497 192.756Z"/>
	<path fill="#2400EE" transform="scale(2 2)" d="M246.949 222.924C238.134 231.563 238.602 216.569 239.011 211.79C242.061 176.067 265.27 145.968 300.375 136.414C306.093 134.858 311.895 134.075 317.752 133.261C321.338 133.063 328.383 132.314 328.125 137.893C327.916 142.416 318.42 141.443 315.217 141.772C276.35 145.76 247.84 177.074 246.998 216.205C246.951 218.351 247.117 220.496 246.971 222.638L246.949 222.924Z"/>
	<path fill="#2400EE" transform="scale(2 2)" d="M345.033 262.674C342.583 265.44 329.016 279.445 326.573 279.836C323.666 280.301 291.31 246.343 287.988 242.932C284.454 239.302 280.253 236.021 277.299 231.897C261.686 210.106 275.958 181.88 301.723 179.343C311.257 178.765 319.925 182.179 326.592 189.041C353.478 161.621 397.328 195.819 378.042 228.614C373.168 236.903 352.563 254.844 345.033 262.674ZM303.731 187.268C284.909 187.529 272.38 208.421 281.759 224.065C286.27 231.59 299.865 243.529 306.346 250.015C312.847 256.522 319.396 264.622 326.592 270.218C329.729 266.239 340.239 255.525 344.199 252.739L344.477 252.361C355.285 237.773 377.065 227.653 374.103 207.754C371.55 190.609 351.276 181.223 336.599 190.943C333.607 192.925 328.095 200.342 324.853 198.135C317.619 193.209 316.035 186.726 303.731 187.268Z"/>
	<path fill="#2400EE" transform="scale(2 2)" d="M248.844 283.791C250.813 280.817 253.765 278.314 256.002 275.503C258.106 272.86 263.131 262.463 267.725 265.717C275.836 271.461 248.639 295.37 244.241 299.104C246.15 301.021 248.185 302.896 249.914 304.977L249.348 304.906C236.126 296.301 252.429 294.331 250.777 289.632L250.21 290.157C249.341 289.655 249.516 286.591 248.844 285.508C248.891 284.917 248.898 284.381 248.844 283.791Z"/>
	<path fill="#2400EE" transform="scale(2 2)" d="M215.879 319.674L215.618 319.202C224.191 314.976 231.651 307.702 238.716 304.328L239.38 303.81C239.592 303.913 257.041 322.658 259.17 324.604C260.203 325.549 266.003 329.514 265.434 330.636C255.365 323.502 246.889 313.468 238.716 304.328C231.57 310.27 224.071 315.274 215.879 319.674Z"/>
	<path fill="#2400EE" transform="scale(2 2)" d="M189.142 447.232C184.533 447.535 184.258 444.864 184.129 441.199C183.946 435.996 183.629 398.479 184.39 396.237C184.863 394.845 186.692 394.275 187.915 393.771C191.648 393.336 192.281 395.729 192.42 399.049C192.635 404.172 192.914 442.532 192.112 444.745C191.634 446.062 190.322 446.672 189.142 447.232Z"/>
	<path fill="#2400EE" transform="scale(2 2)" d="M325.531 475.897C323.829 476.188 321.689 476.202 320.727 474.474C319.757 472.731 319.638 444.998 320.298 442.608C320.621 441.439 322.13 440.784 323.106 440.271C330.497 439.73 328.466 448.636 328.46 453.429L328.441 473.069C327.618 474.329 326.797 475.071 325.531 475.897Z"/>
</svg>
