<?xml version="1.0" encoding="utf-8" ?>
<svg xmlns="http://www.w3.org/2000/svg" xmlns:xlink="http://www.w3.org/1999/xlink" width="1024" height="1024">
	<path fill="#2400EE" transform="scale(2 2)" d="M256.938 98.9967C208.756 96.8424 162.936 127.86 146.335 172.927C145.03 176.468 143.175 191.226 136.486 185.627C133.865 183.433 136.1 179.615 136.891 177.079C152.632 126.603 195.389 96.3484 246.615 91.7621C301.149 91.0491 345.122 123.242 363.606 173.613C364.804 176.878 366.656 180.914 366.617 184.416C366.573 188.298 362.754 190.355 360.314 187.029C357.969 183.832 357.8 178.54 356.363 174.821C338.9 129.592 304.416 103.565 256.938 98.9967Z"/>
	<path fill="#2400EE" transform="scale(2 2)" d="M183.702 149.303C173.479 146.568 186.784 136.767 190.046 134.172C204.196 122.919 221.284 114.722 239.471 113.093C242.051 113.278 244.283 115.424 242.826 118.16C241.292 121.041 236.342 121.126 233.476 121.627C218.906 124.178 205.487 130.938 194.256 140.443C191.278 142.964 187.217 148.263 183.702 149.303Z"/>
	<path fill="#2400EE" transform="scale(2 2)" d="M170.374 166.223C167.89 166.308 165.794 164.39 165.659 161.908C165.525 159.426 167.402 157.293 169.881 157.11C171.528 156.989 173.112 157.767 174.023 159.145C174.934 160.523 175.03 162.285 174.273 163.753C173.516 165.221 172.025 166.166 170.374 166.223Z"/>
	<defs>
		<linearGradient id="gradient_0" gradientUnits="userSpaceOnUse" x1="325.55951" y1="362.09924" x2="56.780384" y2="233.00374">
			<stop offset="0" stop-color="#670AFD"/>
			<stop offset="1" stop-color="#A007FC"/>
		</linearGradient>
	</defs>
	<path fill="url(#gradient_0)" transform="scale(2 2)" d="M326.799 332.025C324.603 333.511 319.129 336.496 318.721 339.261C315.091 339.313 311.141 342.743 308.014 344.405C290.99 353.451 278.838 355.549 259.727 358.054C266.152 372.448 287.55 388.06 253.956 387.774L253.956 416.375C253.958 419.462 254.873 431.642 253.294 433.835C252.089 435.507 249.156 435.662 247.688 434.278C245.305 432.032 246.6 420.268 246.607 417.067L246.615 387.774C242.327 387.844 235.685 388.83 232.064 386.131C223.449 379.709 237.151 363.538 241.414 358.054C224.624 353.877 215.924 354.593 197.909 346.034C186.959 340.832 189.7 339.188 177.294 339.231L104.329 339.283C91.3502 339.297 83.31 334.554 83.2366 320.64L83.2353 194.044C83.2255 185.646 81.5003 175.517 88.065 168.961C95.9096 161.128 109.708 163.668 120.161 163.724C123.208 163.741 127.802 164.088 126.999 168.447C126.223 172.658 109.599 171.236 105.976 171.224C92.1053 171.179 90.6348 173.235 90.6686 185.574L90.6902 313.904C90.5311 336.053 96.0266 332.031 117.273 332.04L156.918 332.032C162.51 332.026 170.036 331.514 175.365 332.025C172.402 328.71 168.779 325.954 165.674 322.754C156.769 313.575 138.258 288.678 135.801 275.437C134.917 270.673 139.926 268.586 142.384 272.686C144.346 275.959 145.58 280.781 147.37 284.422C190.925 373.049 312.399 373.904 355.224 284.491C356.305 282.234 360.679 266.25 365.872 272.115C368.73 275.342 364.144 283.114 362.753 286.159C354.137 305.026 342.484 318.748 326.799 332.025ZM250.585 358.054C248.011 360.568 238.661 374.964 236.583 378.61C234.47 382.315 248.847 380.738 250.585 380.739C270.28 380.803 266.61 382.627 255.473 365.046C254.393 363.341 252.554 358.652 250.585 358.054Z"/>
	<path fill="#D400F1" transform="scale(2 2)" d="M318.721 339.261C319.129 336.496 324.603 333.511 326.799 332.025C332.075 332.175 337.363 332.028 342.642 332.025L399.624 332.031C424.822 332.057 421.362 332.227 421.347 309.45L421.368 215.051C421.366 203.624 421.639 192.12 421.297 180.7C420.756 162.668 389.075 176.301 384.722 169.725C378.007 159.58 415.281 164.296 417.972 165.217C432.447 170.172 428.671 188.902 428.658 201.092L428.653 297.253C428.654 303.503 429.814 324.076 427.9 329.045C422.475 343.123 405.018 339.259 392.723 339.255L325.744 339.269C323.635 339.278 320.712 339.764 318.721 339.261Z"/>
	<path fill="#2400EE" transform="scale(2 2)" d="M260.701 242.467C262.345 240.806 264.672 237.962 267.118 239.913C275.998 246.998 251.073 260.678 237.998 248.046C224.347 234.858 229.761 206.979 250.585 206.782C258.106 204.302 274.134 214.558 267.201 220.36C263.284 223.638 260.301 214.581 254.022 214.168C231.966 212.718 232.932 245.542 251.451 246.168C255.143 246.292 258.034 244.921 260.701 242.467Z"/>
	<path fill="#2400EE" transform="scale(2 2)" d="M297.508 252.924C265.738 256.022 266.518 208.068 292.679 206.782C318.369 202.359 326.196 248.906 297.508 252.924ZM294.008 213.317C273.033 217.122 280.833 249.98 295.062 246.013C313.6 245.764 311.952 211.907 294.008 213.317Z"/>
	<path fill="#2400EE" transform="scale(2 2)" d="M133.444 219.48L127.957 238.927C127.223 241.583 125.417 251.385 123.013 252.671C116.282 256.272 114.452 238.47 113.297 234.232L109.079 218.709C107.943 214.519 104.736 209.264 109.809 206.782C117 205.963 118.928 228.745 121.226 235.498C123.512 229.098 126.593 213.285 129.66 208.402C137.071 196.602 144.938 233.565 145.394 235.498C147.729 230.108 150.143 209.627 153.097 207.529C163.697 200 155.854 226.902 155.445 228.542C154.097 233.853 151.697 247.567 149.916 251.417C148.658 254.14 144.753 253.682 143.601 251.16C140.41 244.174 135.557 226.999 133.444 219.48Z"/>
	<path fill="#2400EE" transform="scale(2 2)" d="M343.494 240.563C345.079 237.547 346.194 234.228 347.421 231.054L352.874 217.005C354.59 212.61 355.122 207.799 360.348 206.782C367.924 206.934 364.891 219.044 364.889 225.021C364.888 229.947 367.572 251.002 361.699 251.51C354.739 252.112 357.869 229.957 357.536 224.291C356.678 226.917 347.552 260.745 340.45 250.112C337.134 245.148 333.119 230.825 330.027 224.291C329.815 227.143 330.015 230.13 330.027 232.999C330.021 236.436 330.46 246.754 329.853 249.401C329.171 252.37 324.561 253.072 323.391 250.151C321.639 245.779 322.773 231.865 322.785 226.67C322.794 223.051 321.061 208.202 324.945 207.144C332.517 205.08 334.028 214.563 336.045 219.705C338.721 226.528 341.993 233.367 343.494 240.563Z"/>
	<path fill="#2400EE" transform="scale(2 2)" d="M172.069 245.002C176.853 244.987 190.328 244.248 194.18 246.152C197.992 248.038 196.083 252.094 192.644 252.752C189.881 253.281 171.854 253.283 168.124 252.868C162.774 252.272 164.478 244.683 164.482 240.244L164.539 224.099C164.579 218.187 161.793 207.368 169.313 207.131L184.356 207.112C187.057 207.112 189.972 206.894 192.636 207.319C195.664 207.802 197.061 211.677 194.76 213.897C192.844 215.745 188.144 214.804 185.757 214.783L172.069 214.751L172.069 225.623C176.993 225.714 193.816 222.914 193.874 229.621C193.911 233.873 186.467 233.048 183.78 233.043L172.069 232.999L172.069 235.498L172.069 245.002Z"/>
	<path fill="#2400EE" transform="scale(2 2)" d="M379.986 245.002C384.387 245.016 400.645 243.68 402.416 246.852C407.303 255.604 373.838 252.228 372.905 249.437C372.195 247.315 369.845 208.469 375.104 207.131C379.981 207.023 384.884 207.129 389.763 207.136C393.606 207.142 401.849 205.363 402.262 211.063C402.701 217.133 383.686 214.652 379.986 214.751L379.986 225.623C381.225 225.63 403.506 223.806 396.213 231.494C393.957 233.872 383.458 233.017 379.986 232.999C379.936 234.557 379.981 236.128 379.986 237.688C379.839 240.147 379.863 242.544 379.986 245.002Z"/>
	<path fill="#2400EE" transform="scale(2 2)" d="M227.31 252.924C222.88 253.027 205.25 253.531 202.205 252.222C200.428 248.959 201.036 244.411 201.032 240.846L201.021 227.022C201.019 221.707 199.088 210.149 203.223 207.131C210.915 206.526 208.399 216.168 208.396 221.902L208.382 246.013C211.832 246.019 226.356 244.585 228.47 247.127C230.241 249.256 229.317 251.472 227.31 252.924Z"/>
</svg>
