<?xml version="1.0" encoding="utf-8" ?>
<svg xmlns="http://www.w3.org/2000/svg" xmlns:xlink="http://www.w3.org/1999/xlink" width="1024" height="1024">
	<defs>
		<linearGradient id="gradient_0" gradientUnits="userSpaceOnUse" x1="26.641644" y1="314.52182" x2="235.36502" y2="238.84798">
			<stop offset="0" stop-color="#3903F4"/>
			<stop offset="1" stop-color="#9B0EF9"/>
		</linearGradient>
	</defs>
	<path fill="url(#gradient_0)" transform="scale(2 2)" d="M311.968 440.577C308.888 440.768 305.682 440.592 302.59 440.588L127.911 440.577C110.504 440.578 93.0734 440.765 75.6684 440.552C69.0925 440.472 70.6694 433.805 70.6919 429.099L70.7321 84.1055C70.7265 80.4468 68.5789 71.4075 73.9525 70.7967C78.6835 70.259 84.1292 70.7565 88.9359 70.7613L120.609 70.7443C119.397 70.9335 118.206 71.0643 116.984 71.1588C119.967 71.3425 124.894 71.1625 121.119 75.5153C116.462 77.9966 93.6396 77.654 86.397 77.4861C74.1321 77.2019 76.6663 73.8797 77.2664 85.1512C77.4577 88.7448 76.5276 97.8851 77.2347 100.392L77.2347 164.983C82.2231 165.07 108.19 162.688 107.526 168.58C106.998 173.274 96.3687 171.742 93.2771 171.712L77.2347 171.687L77.2347 324.192L95.1253 324.207C97.8203 324.2 106.965 322.727 106.717 327.394C106.373 333.888 83.4883 330.807 77.2347 330.803L77.2347 433.898L157.751 433.898C157.743 431.087 157.046 414.262 158.515 412.825C160.319 411.059 163.867 411.944 164.113 414.581C164.608 419.87 164.017 428.314 164.02 433.898L252.87 433.898L252.859 420.187C252.844 417.397 251.936 412.094 254.176 409.888C255.598 408.488 257.864 409.126 258.952 410.623C260.287 412.46 259.211 430.198 259.455 433.898C270.774 433.897 282.179 433.594 293.488 433.898C293.884 433.986 294.834 434.071 295.084 434.351L295.002 434.794L294.733 434.173L294.986 434.396L293.951 434.554C296.121 434.753 300.753 435.275 302.668 436.046C303.523 436.39 306.896 437.908 307.209 438.396L307.681 438.189L307.879 438.691C306.249 440.203 303.161 439.117 301.941 440.112C303.78 440.147 310.835 439.698 311.893 440.205L311.968 440.577Z"/>
	<path fill="#D400F1" transform="scale(2 2)" d="M120.609 70.7443L421.567 70.737C426.856 70.736 441.44 68.247 441.397 75.8416L441.262 427.604C441.352 444.573 442.554 440.58 423.219 440.579L340.33 440.582C330.908 440.582 321.38 440.88 311.968 440.577L311.893 440.205C310.835 439.698 303.78 440.147 301.941 440.112C303.161 439.117 306.249 440.203 307.879 438.691L307.681 438.189L307.209 438.396C306.896 437.908 303.523 436.39 302.668 436.046C300.753 435.275 296.121 434.753 293.951 434.554L294.986 434.396L294.733 434.173L295.002 434.794L295.084 434.351C294.834 434.071 293.884 433.986 293.488 433.898L332.503 433.909C335.922 433.9 345.286 433.411 348.025 433.898L348.328 434.171C349.128 433.575 348.055 421.021 348.629 418.929C348.382 420.573 349.327 423.301 349.359 419.728C349.924 422.632 353.899 425.391 354.038 421.502L354.172 421.508C354.625 423.975 354.039 430.154 354.279 433.548L354.761 433.898C356.563 434.43 368.333 433.887 371.274 433.888L434.733 433.898C435.046 430.113 434.765 426.219 434.752 422.417L434.733 330.803C428.771 330.308 407.664 333.401 406.734 327.462C405.925 322.296 412.722 324.202 415.553 324.219L434.733 324.192L434.733 170.988C427.759 170.842 416.61 171.827 410.239 171.056C407.712 170.75 406.052 167.723 407.972 165.66C409.437 164.085 431.412 164.985 434.733 164.983L434.733 77.511C425.598 77.3315 416.426 77.5035 407.286 77.5063L353.986 77.511C353.992 79.3158 356.194 106.414 348.525 98.9747C346.407 96.9194 347.195 92.0681 347.203 89.438L347.23 77.511L259.455 77.511C259.152 82.3107 260.709 95.6695 257.865 98.9227C256.669 100.29 254.492 99.9032 253.396 98.57C252.271 97.203 252.501 80.1856 252.87 77.511L164.02 77.511C164.021 79.3193 166.063 107.056 157.731 98.6018C156.353 97.2031 156.991 80.4744 156.997 77.511L77.2347 77.511L77.2347 100.392C76.5276 97.8851 77.4577 88.7448 77.2664 85.1512C76.6663 73.8797 74.1321 77.2019 86.397 77.4861C93.6396 77.654 116.462 77.9966 121.119 75.5153C124.894 71.1625 119.967 71.3425 116.984 71.1588C118.206 71.0643 119.397 70.9335 120.609 70.7443Z"/>
	<path fill="#D400F1" transform="scale(2 2)" d="M277.975 178.519C280.297 155.553 293.526 131.001 319.25 130.263C367.682 126.661 378.765 211.588 330.184 232.861C334.502 246.874 336.214 247.318 320.06 247.241C320.355 257.413 317.497 267.258 314.675 276.909C333.01 257.841 362.277 265.931 373.743 288.904C387.723 316.916 378.404 354.055 349.473 368.544C353.748 378.635 359.158 384.134 342.678 382.945C345.341 389.435 346.899 395.696 344.448 402.525C343.167 406.094 338.445 412.893 335.833 406.721C334.404 403.346 342.925 398.557 335.598 382.945C323.342 384.081 328.156 375.853 331.879 368.544C318.427 364.235 308.729 350.416 304.193 337.625C302.687 333.378 302.064 328.867 300.429 324.663L300.242 324.192C300.767 315.12 299.334 309.636 301.742 299.928C294.084 307.654 287.056 314.283 276.509 317.81C283.099 339.64 289.147 340.107 265.993 339.97C265.615 354.985 274.119 361.661 274.448 374.003C274.59 379.343 273.116 390.546 269.225 394.379C267.037 396.534 262.743 395.02 263.059 391.782C263.251 389.813 264.696 387.772 265.457 385.95C270.192 374.616 265.724 367.08 261.608 357.096C259.324 351.554 258.811 345.91 258.993 339.97C238.9 339.289 240.017 342.907 247.987 317.81C207.131 303.111 193.863 248.513 211.059 211.772C222.371 187.604 251.036 165.729 277.975 178.519ZM318.581 137.354C297.769 138.318 284.455 162.323 284.745 181.207C304.526 192.405 312.165 207.95 318.581 228.773C319.537 228.768 320.563 228.681 321.51 228.773C335.727 223.401 342.706 217.911 349.37 203.112C359.363 180.918 356.719 150.003 332.138 139.21C328.892 137.785 321.947 135.658 318.581 137.354ZM258.285 182.255C223.633 186.496 207.125 225.674 211.211 256.971C214.645 283.278 235.997 316.516 265.993 312.95C299.526 309.077 316.361 267.608 312.822 237.874C309.384 208.982 289.657 181.165 258.285 182.255ZM320.06 234.794C319.903 236.812 319.9 238.708 320.06 240.726C321.763 240.755 323.46 240.782 325.162 240.726C324.898 238.741 323.954 236.684 323.285 234.794L320.06 234.794ZM337.392 273.295C293.425 274.378 299.74 362.42 342.678 363.194C375.262 356.587 384.217 297.094 355.659 278.179C350.856 274.998 343.231 272.059 337.392 273.295ZM254.401 320.246L250.563 333.009L271.562 333.009L274.253 333.009C273.12 328.73 271.822 324.492 270.572 320.246C265.287 320.186 259.653 319.935 254.401 320.246ZM341.375 369.308L338.488 369.308C337.307 371.601 336.357 373.787 335.598 376.248L340.652 376.248C342.44 376.258 344.246 376.317 346.032 376.248C345.307 374.153 344.4 368.596 341.375 369.308Z"/>
	<path fill="#D400F1" transform="scale(2 2)" d="M162.506 232.195C121.807 214.416 117.768 135.652 171.287 130.263C184.984 130.006 197.711 138.289 205.047 149.534C223.451 177.746 209.722 214.91 182.641 232.195C186.295 242.577 189.572 247.621 175.949 247.241C175.972 253.652 175.671 259.874 175.078 266.26C225.604 275.822 222.806 349.718 183.277 367.692C183.99 381.048 186.135 382.903 174.424 382.945C175.076 390.946 185.057 396.999 175.949 409.875C167.626 414.875 173.262 397.654 173.259 397.458C173.207 394.239 168.417 389.644 167.552 382.945C156.846 383.202 160.281 376.897 160.11 367.692C156.562 365.128 152.904 362.739 149.802 359.619C129.124 338.816 123.079 299.15 145.614 277.364C151.847 271.338 159.73 267.165 168.492 267.284C168.041 260.692 169.084 253.9 168.988 247.241C156.346 247.034 159.185 244.814 162.506 232.195ZM172.162 137.354C148.941 139.017 136.781 161.224 138.448 182.84C139.757 199.812 152.692 227.498 173.044 227.256C202.166 224.218 219.637 167.54 191.436 144.521C186.076 140.146 179.202 137.001 172.162 137.354ZM168.988 233.756C168.726 236.14 168.165 238.413 167.552 240.726L175.949 240.726L176.73 240.677C177.846 239.119 176.38 235.402 175.949 233.756L168.988 233.756ZM168.988 273.295C119.058 281.81 137.575 365.6 175.078 363.194C184.089 361.605 191.054 354.262 196.098 347.086C215.121 320.022 206.79 273.829 168.988 273.295ZM175.078 370.466C172.514 370.784 170.117 370.69 167.552 370.466C167.609 372.22 167.485 374.288 167.969 375.97L168.492 376.248L175.949 376.248C175.987 374.921 176.412 371.287 175.607 370.404L175.078 370.466Z"/>
	<path fill="#D400F1" transform="scale(2 2)" d="M193.42 178.519C185.824 177.914 193.906 161.543 177.87 156.011C176.119 155.407 173.68 155.026 172.159 154.048C169.555 152.376 171.968 148.638 174.424 148.251C190.753 148.309 203.193 173.315 193.42 178.519Z"/>
	<path fill="#D400F1" transform="scale(2 2)" d="M344.663 181.207C335.294 182.662 344.935 164.759 329.858 156.789C325.853 154.672 319.889 153.091 325.162 148.251C340.831 147.236 352.808 175.559 344.663 181.207Z"/>
	<path fill="#D400F1" transform="scale(2 2)" d="M293.488 233.756C285.792 235.068 288.723 218.401 274.516 212.125C271.564 210.821 259.631 208.347 267.423 203.257C284.183 202.46 301.337 228.244 293.488 233.756Z"/>
	<path fill="#D400F1" transform="scale(2 2)" d="M296.403 251.123C291.035 251.607 289.874 242.622 294.559 240.726C300.485 239.502 301.098 249.229 296.403 251.123Z"/>
	<path fill="#D400F1" transform="scale(2 2)" d="M361.752 316.698C353.03 315.403 360.819 298.11 345.527 291.917C343.59 291.132 341.436 290.771 339.631 289.683C336.75 287.946 337.419 284.079 340.652 283.51C355.851 282.706 370.617 308.392 361.752 316.698Z"/>
	<path fill="#D400F1" transform="scale(2 2)" d="M195.394 316.698C189.724 317.362 191.019 310.17 190.204 306.514C186.762 291.063 173.823 292.284 172.129 288.268C171.261 286.209 173.44 284.281 175.078 283.51C190.532 285.385 205.589 311.283 195.394 316.698Z"/>
	<path fill="#2400EE" transform="scale(2 2)" d="M354.761 433.898L354.279 433.548C354.039 430.154 354.625 423.975 354.172 421.508L354.038 421.502C353.899 425.391 349.924 422.632 349.359 419.728C349.327 423.301 348.382 420.573 348.629 418.929C348.055 421.021 349.128 433.575 348.328 434.171L348.025 433.898C347.682 429.677 346.629 411.334 350.962 410.966C356.318 410.512 354.822 417.816 354.794 421.146L354.761 433.898Z"/>
</svg>
