<?xml version="1.0" encoding="utf-8" ?>
<svg xmlns="http://www.w3.org/2000/svg" xmlns:xlink="http://www.w3.org/1999/xlink" width="1024" height="1024">
	<defs>
		<linearGradient id="gradient_0" gradientUnits="userSpaceOnUse" x1="138.67274" y1="409.8486" x2="414.8403" y2="176.42">
			<stop offset="0" stop-color="#7B0BFD"/>
			<stop offset="1" stop-color="#D80FF6"/>
		</linearGradient>
	</defs>
	<path fill="url(#gradient_0)" transform="scale(2 2)" d="M76.3688 236.689C88.8776 216.63 101.1 216.527 119.175 209.746C104.39 175.495 125.281 134.164 158.629 119.863C171.778 114.224 195.455 110.761 208.327 118.74C221.38 69.0806 291.236 69.1828 305.43 118.74C357.707 99.6626 408.983 143.502 400.259 197.767C399.536 202.262 398.297 206.696 397.018 211.061C432.733 218.809 453.701 255.554 445.958 290.604C440.675 314.514 421.953 339.426 401.395 352.438L397.018 355.184C396.996 359.258 396.399 365.449 397.327 369.211C398.805 375.204 405.139 379.474 403.246 386.498C400.54 396.539 391.815 395.686 384.864 390.671L384.884 469.892C384.896 473.004 385.165 476.286 384.864 479.375C381.984 482.924 377.624 483.367 377.133 477.811C376.849 474.595 377.012 471.268 377.012 468.038L377.018 395.13C370.913 393.957 365.688 387.857 367.152 381.457C369.255 372.267 375.441 370.807 373.69 355.184L373.412 354.97C368.39 351.147 363.092 348.105 358.244 343.949C331.537 321.054 312.365 281.255 328.414 246.914C330.075 243.36 332.405 240.189 334.09 236.689C320.966 217.851 290.781 196.118 266.527 198.711C267.444 203.486 268.262 208.572 269.89 213.16C270.863 215.902 273.047 218.242 273.573 221.118C275.402 231.117 265.192 235.208 256.492 230.075C252.907 231.734 249.894 233.574 245.831 232.123C233.997 227.899 240.752 218.483 242.716 212.477C244.198 207.944 244.704 203.03 246.737 198.711C225.95 197.871 187.746 217.356 177.847 236.689C179.804 238.944 181.183 241.524 182.54 244.166C200.216 278.581 182.165 321.769 153.244 344.099L152.822 343.93C150.781 345.044 137.465 353.888 136.553 354.693C134.451 356.549 136.421 360.619 136.365 363.095L136.107 363.245C135.763 362.546 135.184 362.789 134.956 361.997C134.357 359.923 135.403 358.546 133.395 358.761C132.778 358.828 130.493 358.272 130.135 357.739L129.641 358.914L129.324 358.915C129.428 356.542 123.857 357.785 122.383 356.165C122.026 355.773 122.279 355.53 121.7 355.282L121.393 355.561C122.732 363.713 120.334 375.182 114.86 381.695L114.571 381.642C114.567 381.634 114.767 376.243 113.936 373.374C111.272 372.334 114.374 369.824 113.917 367.688C113.563 366.036 113.289 364.717 115.112 363.815L114.921 363.608L115.252 363.731C115.663 363.072 115.047 362.836 114.553 362.612L114.287 362.493C114.142 362.057 114.298 361.789 114.404 361.351L115.007 361.383L114.946 361.283L115.29 362.081L115.504 362.08C115.608 361.026 116.079 359.939 115.735 358.945L115.354 359.202C113.228 356.057 117.53 354.265 114.473 352.475C106.981 348.089 101.545 343.542 94.9541 337.827L94.9595 337.59C100.32 339.885 97.4204 340.182 100.892 338.256C100.837 332.808 99.0427 334.481 97.7659 331.408C98.5773 331.755 101.957 335.284 102.956 336.153C106.331 339.09 122.143 350.954 126.486 350.708L126.885 351.235L126.961 350.927C126.249 351.242 125.826 350.624 125.167 351.048C124.991 352.791 123.819 354.817 126.849 355.337C126.571 354.461 125.756 354.248 125.558 353.493C127.776 352.427 134.111 353.607 134.23 350.032C134.32 347.353 140.292 344.795 142.247 343.393C147.315 339.759 157.63 331.218 161.258 325.862L161.043 325.474C179.156 301.878 190.144 274.549 174.799 245.813C151.471 202.13 88.9759 210.059 74.2058 259.25C71.7339 260.853 72.2011 275.756 72.0187 279.108L72.201 279.154C71.787 279.615 72.7467 281.329 72.3933 282.253C70.2675 282.157 68.8124 271.264 70.6206 268.956C71.7912 267.462 70.4642 266.64 70.4937 265.072C70.5317 263.052 71.7234 261.16 72.2634 259.242C69.8594 250.545 77.6078 240.651 76.3688 236.689ZM254.331 89.5521C243.42 89.9925 232.437 95.2965 225.043 103.325C196.077 134.775 236.251 194.259 259.831 190.068C273.625 186.236 284.298 172.976 291.07 161.023C304.719 136.933 302.495 108.613 276.694 94.1402C270.982 90.936 260.835 88.1666 254.331 89.5521ZM325.169 121.762C318.998 122.589 313.065 123.927 307.255 126.208C308.428 149.399 295.011 178.35 274.886 190.876C300.428 195.363 323.68 209.327 339.342 230.075L341.736 227.51C355.021 214.665 371.155 208.841 389.461 209.746C390.456 205.245 392.021 200.947 392.762 196.38C399.178 156.808 365.158 117.162 325.169 121.762ZM185.198 121.762C164.116 124.11 150.237 129.056 136.097 146.663C122.892 163.105 118.066 190.138 127.294 209.746C145.07 209.835 160.252 217.291 172.594 229.743L172.921 230.075L174.281 228.36C188.724 210.288 214.38 193.549 238.014 190.926L238.494 190.876C217.674 174.039 206.17 152.809 207.227 125.267C198.985 123.071 193.472 122.63 185.198 121.762ZM254.331 198.711C252.899 204.366 251.857 210.35 249.929 215.849C249.096 218.224 247.515 220.249 246.737 222.655C247.347 223.572 247.922 224.483 248.682 225.285C251.795 222.99 254.578 220.449 258.636 221.754C260.428 222.745 261.868 224.165 263.563 225.285C268.556 222.094 263.51 219.743 261.924 214.984C260.248 209.953 258.881 204.034 258.636 198.711L254.331 198.711ZM380.202 217.507C348.069 221.448 327.152 249.785 331.089 281.716C334.067 305.86 349.406 327.146 368.268 341.796C374.411 346.567 381.326 351.061 389.461 349.693C422.97 336.356 449.513 288.856 435.02 252.762C426.334 231.131 403.901 215.279 380.202 217.507ZM382.09 357.806C381.987 371.388 379.898 372.961 375.159 383.72C378.591 393.103 380.725 379.486 388.383 383.72C391.27 386.82 396.804 388.7 395.693 383.098C394.887 379.031 389.66 373.374 388.383 368.8C389.649 365.183 389.471 361.59 389.461 357.806L382.09 357.806Z"/>
	<path fill="#D400F1" transform="scale(2 2)" d="M93.6269 194.509C86.3514 193.485 88.392 185.485 88.6849 180.141C90.9398 139 119.712 103.806 158.739 91.6364C162.911 90.3354 167.293 89.014 171.652 88.6052C173.996 88.6845 174.869 90.2302 175.71 92.2356C173.729 97.9406 167.639 97.1027 162.619 98.5217C125.873 108.908 98.0617 142.55 96.3784 181.075C96.2075 184.989 97.5891 192.1 93.6269 194.509Z"/>
	<path fill="#D400F1" transform="scale(2 2)" d="M233.083 136.475C222.999 134.861 229.951 109.448 245.46 106.048C256.539 107.67 240.945 117.648 239.877 118.95C234.758 125.187 240.523 133.678 233.083 136.475Z"/>
	<path fill="#2400EE" transform="scale(2 2)" d="M93.6269 276.721C81.621 277.83 90.216 241.131 119.175 235.552C121.638 235.42 124.644 237.872 123.705 240.519C122.047 245.193 100.439 244.137 96.8718 266.913C96.2202 271.073 97.8534 274.24 93.6269 276.721Z"/>
	<path fill="#2400EE" transform="scale(2 2)" d="M114.744 353.312C78.4693 333.55 52.3215 285.283 71.3615 245.519C72.7845 242.547 74.3935 239.335 76.3688 236.689C77.6078 240.651 69.8594 250.545 72.2634 259.242C71.7234 261.16 70.5317 263.052 70.4937 265.072C70.4642 266.64 71.7912 267.462 70.6206 268.956C68.8124 271.264 70.2675 282.157 72.3933 282.253C72.7467 281.329 71.787 279.615 72.201 279.154L72.0187 279.108C72.2011 275.756 71.7339 260.853 74.2058 259.25C69.9558 279.114 74.404 298.563 85.4309 315.456C94.2662 328.991 112.325 346.519 128.151 350.627C137.044 347.573 147.861 339.08 154.449 332.394C155.887 330.934 159.587 326.298 161.043 325.474L161.258 325.862C157.63 331.218 147.315 339.759 142.247 343.393C140.292 344.795 134.32 347.353 134.23 350.032C134.111 353.607 127.776 352.427 125.558 353.493C125.756 354.248 126.571 354.461 126.849 355.337C123.819 354.817 124.991 352.791 125.167 351.048C125.826 350.624 126.249 351.242 126.961 350.927L126.885 351.235L126.486 350.708C122.143 350.954 106.331 339.09 102.956 336.153C101.957 335.284 98.5773 331.755 97.7659 331.408C99.0427 334.481 100.837 332.808 100.892 338.256C97.4204 340.182 100.32 339.885 94.9595 337.59L94.9541 337.827C101.545 343.542 106.981 348.089 114.473 352.475C117.53 354.265 113.228 356.057 115.354 359.202L115.735 358.945C116.079 359.939 115.608 361.026 115.504 362.08L115.29 362.081L114.946 361.283L115.007 361.383L114.404 361.351C114.298 361.789 114.142 362.057 114.287 362.493L114.553 362.612C115.047 362.836 115.663 363.072 115.252 363.731L114.921 363.608L115.112 363.815C113.289 364.717 113.563 366.036 113.917 367.688C114.374 369.824 111.272 372.334 113.936 373.374C114.767 376.243 114.567 381.634 114.571 381.642L114.86 381.695C120.334 375.182 122.732 363.713 121.393 355.561L121.7 355.282C122.279 355.53 122.026 355.773 122.383 356.165C123.857 357.785 129.428 356.542 129.324 358.915L129.641 358.914L130.135 357.739C130.493 358.272 132.778 358.828 133.395 358.761C135.403 358.546 134.357 359.923 134.956 361.997C135.184 362.789 135.763 362.546 136.107 363.245L136.365 363.095C136.421 360.619 134.451 356.549 136.553 354.693C137.465 353.888 150.781 345.044 152.822 343.93L153.244 344.099C148.26 348.26 142.184 352.538 136.231 355.184C137.14 361.289 136.725 367.795 138.634 373.717C146.459 380.906 145.735 390.061 135.459 393.694L135.459 468.745C135.459 471.937 136.552 478.887 134.289 481.509C131.798 484.396 127.615 482.039 127.316 478.703C127.049 475.714 127.271 472.554 127.276 469.544L127.294 393.694C126.395 393.131 125.469 392.605 124.556 392.066C116.642 394.929 108.228 393.107 107.302 383.302C106.887 378.902 109.828 375.801 112.412 372.669C113.074 366.218 113.676 359.708 114.744 353.312ZM122.038 356.627C121.721 361.564 121.335 371.104 119.466 375.57C119.173 376.269 110.763 387.076 118.689 386.348C122.285 386.017 123.771 378.511 128.151 382.648C128.798 383.674 129.412 384.759 130.178 385.7C131.66 386.34 132.884 386.76 134.448 386.054C138.646 384.156 133.233 379.212 132.19 377.199C129.319 371.662 128.724 363.917 129.054 357.806C126.332 358.156 124.553 357.765 122.038 356.627Z"/>
	<path fill="#2400EE" transform="scale(2 2)" d="M408.122 482.722C406.327 482.358 404.552 481.311 403.873 479.516C403.09 477.446 402.868 431.256 403.662 429.67C404.243 428.509 405.366 428.108 406.525 427.721C408.175 427.545 410.057 427.594 410.866 429.35C411.437 430.587 411.713 477.895 411.099 479.617C410.551 481.152 409.581 482.061 408.122 482.722Z"/>
	<path fill="#2400EE" transform="scale(2 2)" d="M105.849 482.722C102.24 482.214 101.599 480.743 101.456 477.455C101.245 472.609 101.111 431.251 101.865 429.657C102.34 428.653 103.724 428.142 104.654 427.721C106.214 427.763 107.964 428.332 108.612 429.907C109.268 431.502 109.213 478.996 108.752 480.231C108.2 481.71 107.234 482.122 105.849 482.722Z"/>
</svg>
