<?xml version="1.0" encoding="utf-8" ?>
<svg xmlns="http://www.w3.org/2000/svg" xmlns:xlink="http://www.w3.org/1999/xlink" width="1024" height="1024">
	<path fill="#D400F1" transform="scale(2 2)" d="M229.86 97.2982C222.256 96.8772 226.536 65.6801 226.576 65.6073C227.071 64.6907 228.929 64.095 229.86 63.7015C235.594 64.3139 233.146 89.5133 232.787 94.2694C232.647 96.1331 231.534 96.7424 229.86 97.2982Z"/>
	<path fill="#2400EE" transform="scale(2 2)" d="M190.318 107.825C186.737 107.168 182.968 97.5344 181.257 94.5022C178.557 89.7177 170.229 80.7747 177.512 78.2468C182.797 78.3124 190.702 97.0626 192.936 101.846C194.345 104.866 193.442 106.54 190.318 107.825Z"/>
	<path fill="#D400F1" transform="scale(2 2)" d="M271.029 107.825C269.04 107.899 266.259 106.952 266.562 104.477C266.905 101.675 276.699 80.4259 279.74 78.2468C282.071 78.1691 284.902 79.3145 284.183 82.2528C283.205 86.2466 274.532 105.597 271.029 107.825Z"/>
	<defs>
		<linearGradient id="gradient_0" gradientUnits="userSpaceOnUse" x1="63.271954" y1="318.72961" x2="291.61728" y2="249.89661">
			<stop offset="0" stop-color="#4102DF"/>
			<stop offset="1" stop-color="#930DEF"/>
		</linearGradient>
	</defs>
	<path fill="url(#gradient_0)" transform="scale(2 2)" d="M162.247 200.246C166.956 200.112 171.695 200.232 176.407 200.246C177.704 201.13 219.024 200.721 224.186 200.836C226.173 200.88 229.463 202.078 231.069 200.623L231.334 200.807L231.39 202.007C232.268 202.793 233.606 203.703 234.085 204.781C233.822 206.134 232.577 205.731 231.635 205.224C227.447 209.27 152.014 205.23 150.093 206.873L84.5809 206.873L84.5809 230.055L258.669 230.055C264.687 231.289 285.511 228.815 286.149 232.845L286.446 233.175C287.419 234.269 287.656 235.88 285.525 235.597L285.594 236.14C298.026 236.165 313.83 235.487 326.09 236.728L292.618 236.731C285.867 236.731 279.097 236.871 272.35 236.728C272.283 236.45 272.341 236.611 272.12 236.269L272.12 237.094C270.257 237.727 267.001 238.757 265.826 236.419L265.579 236.728C257.293 237.146 248.818 236.726 240.507 236.727L188.611 236.728L188.628 275.375C188.631 279.548 187.858 284.093 188.475 288.198C189.517 295.123 198.394 297.753 202.97 292.557C206.52 288.527 203.461 282.378 207.898 282.036C228.587 280.443 211.672 294.867 227.134 295.216C238.988 295.484 231.744 282.181 240.404 281.898C257.613 281.336 242.796 294.41 256.586 295.161C269.448 295.862 265.17 277.442 265.579 268.902C265.88 269.666 265.869 270.612 265.937 271.431C265.959 269.164 265.98 262.163 269.115 261.855L269.565 262.288C274.521 262.839 271.285 273.018 272.126 276.309C272.773 269.156 271.501 260.197 272.35 253.96C272.497 260.924 273.374 283.213 272.163 289.477C268.997 305.841 245.809 305.279 242.393 289.18C235.15 306.792 218.623 305.831 212.082 289.18C205.444 308.136 183.19 304.064 181.798 287.99C180.531 273.371 181.57 251.7 181.753 236.728L94.9698 236.728C94.6736 254.824 94.969 272.975 94.9695 291.077L94.9698 399.957L107.17 399.957C111.173 387.772 115.976 378.361 128.177 372.119C147.602 362.182 172.263 369.881 182.026 389.565C183.557 392.652 184.622 395.934 185.752 399.182L268.708 399.182C273.38 380.395 289.759 365.798 309.77 367.786C309.376 367.946 309.026 368.089 308.662 368.311L309.011 368.359C310.127 368.521 311.082 368.658 311.718 369.686L311.517 370.207L312.145 370.163C312.741 372.992 311.559 373.029 310.079 374.389C311.661 375.01 313.755 374.293 315.177 374.955L315.16 375.261C298.263 371.085 281.077 380.965 276.183 397.668C271.29 414.371 280.428 431.963 296.907 437.564C313.386 443.166 331.352 434.787 337.651 418.562C343.95 402.337 336.345 384.03 320.404 377.044C324.376 374.887 335.241 388.787 336.954 392.406C340.016 398.871 341.061 406.451 339.721 413.496C338.007 422.512 341.457 417.205 341.877 421.408C341.981 422.442 341.337 423.559 341.606 424.556C342.582 422.674 344.245 417.833 344.688 417.182L344.932 417.694C339.908 435.965 321.642 447.552 302.991 445.637C284.827 443.771 266.567 425.838 268.708 406.722L185.752 406.722C186.03 417.234 182.06 427.018 174.607 434.461C149.272 459.763 107.058 441.803 107.17 406.722C83.6528 406.823 88.3452 408.198 88.3472 385.539L88.3513 236.728C85.448 236.504 81.2988 237.267 78.8578 235.541C76.8104 232.561 77.8087 217.108 77.8104 213.167C77.8168 198.375 76.7 200.175 92.3443 200.239L111.042 200.246C106.415 186.151 99.7285 165.593 96.4466 151.252C99.6748 145.745 129.045 116.45 133.086 113.982C133.387 110.321 131.996 97.6531 134.112 95.3218C136.241 92.9766 139.237 95.8992 139.746 98.2327C140.17 100.176 139.743 111.343 139.749 113.982C150.508 125.388 167.398 139.281 176.407 151.252C174.556 156.363 173.441 161.849 171.932 167.08L162.247 200.246ZM136.188 120.706C130.644 124.054 113.48 142.139 107.17 148.608C116.84 148.717 126.517 148.602 136.188 148.608C145.723 148.6 155.267 148.508 164.802 148.608C162.11 145.73 137.71 120.943 136.188 120.706ZM105.005 155.059C105.34 159.219 107.66 164.989 108.885 169.055L114.994 189.999C115.966 193.395 117.097 196.816 117.924 200.246L143.005 200.233C147.074 200.23 151.316 199.968 155.368 200.246C156.255 197.078 157.047 193.83 158.073 190.707C161.334 178.87 165.163 167.047 167.803 155.059C163.267 155.281 158.698 155.067 154.156 155.061L121.586 155.048C116.089 155.047 110.487 154.802 105.005 155.059ZM144.607 374.342C126.537 375.351 112.717 390.835 113.76 408.903C114.802 426.971 130.312 440.763 148.378 439.687C166.397 438.614 180.145 423.153 179.105 405.132C178.065 387.111 162.63 373.335 144.607 374.342Z"/>
	<defs>
		<linearGradient id="gradient_1" gradientUnits="userSpaceOnUse" x1="209.4231" y1="287.08179" x2="449.97208" y2="260.26358">
			<stop offset="0" stop-color="#8509EA"/>
			<stop offset="1" stop-color="#CA0BF0"/>
		</linearGradient>
	</defs>
	<path fill="url(#gradient_1)" transform="scale(2 2)" d="M231.069 200.246C231.532 195.447 231.352 178.028 230.465 174.188C228.901 167.417 222.654 161.962 215.739 161.278C205.157 160.231 208.276 170.821 202.618 170.585C195.953 170.306 201.948 159.566 207.396 156.094L207.065 155.879C204.068 153.944 194.31 150.139 193.576 146.929C191.184 136.483 215.3 152.966 216.043 153.346C224.781 157.814 229.298 157.536 234.847 166.623C253.523 166.364 272.243 166.621 290.923 166.619L314.019 166.616C321.371 166.614 330.08 163.48 330.126 171.637L330.006 200.246C338.396 200.515 346.867 200.241 355.265 200.246L355.255 171.629C355.246 154.086 353.899 140.109 367.344 126.568C383.799 109.996 403.617 114.186 424.736 113.999C427.117 113.978 431.698 113.02 433.58 114.941C438.694 120.157 428.724 120.724 426.12 120.723L406.895 120.695C385.728 120.663 366.188 125.675 362.619 151.106C361.687 157.749 361.998 164.634 361.998 171.324L362.004 200.246C377.741 200.494 375.122 199.263 375.189 214.392C375.204 217.836 376.509 234.116 373.947 236.159C372.455 237.348 368.452 236.804 366.573 236.728L366.578 381.299C366.574 408.55 371.992 408.224 346.288 408.175C346.141 411.368 345.824 414.613 344.932 417.694L344.688 417.182C344.245 417.833 342.582 422.674 341.606 424.556C341.337 423.559 341.981 422.442 341.877 421.408C341.457 417.205 338.007 422.512 339.721 413.496C341.061 406.451 340.016 398.871 336.954 392.406C335.241 388.787 324.376 374.887 320.404 377.044C318.71 376.302 316.955 375.705 315.16 375.261L315.177 374.955C313.755 374.293 311.661 375.01 310.079 374.389C311.559 373.029 312.741 372.992 312.145 370.163L311.517 370.207L311.718 369.686C311.082 368.658 310.127 368.521 309.011 368.359L308.662 368.311C309.026 368.089 309.376 367.946 309.77 367.786C328.302 366.492 342.401 385.023 346.288 401.509L359.36 401.509L359.36 291.892C359.359 273.509 359.166 255.108 359.36 236.728L326.09 236.728C313.83 235.487 298.026 236.165 285.594 236.14L285.525 235.597C287.656 235.88 287.419 234.269 286.446 233.175L286.149 232.845C285.511 228.815 264.687 231.289 258.669 230.055L368.272 230.055C368.484 227.255 368.303 224.414 368.291 221.606L368.272 206.873C365.148 207.098 362.007 206.909 358.877 206.892L196.908 206.866C181.313 206.868 165.684 207.111 150.093 206.873C152.014 205.23 227.447 209.27 231.635 205.224C232.577 205.731 233.822 206.134 234.085 204.781C233.606 203.703 232.268 202.793 231.39 202.007L231.334 200.807L231.069 200.623L231.069 200.246ZM237.939 173.345C237.701 182.215 237.612 191.377 237.939 200.246L323.247 200.246L323.247 173.345L237.939 173.345Z"/>
	<path fill="#D400F1" transform="scale(2 2)" d="M303.225 139.769C301.306 139.258 298.538 137.461 299.481 135.105C300.666 132.147 316.295 116.764 320.68 114.992C322.372 115.371 324.019 117.264 323.701 119.066C323.455 120.46 306.342 137.869 303.225 139.769Z"/>
	<path fill="#2400EE" transform="scale(2 2)" d="M176.407 200.246C194.188 199.868 213.297 199.89 231.069 200.246L231.069 200.623C229.463 202.078 226.173 200.88 224.186 200.836C219.024 200.721 177.704 201.13 176.407 200.246Z"/>
	<path fill="#2400EE" transform="scale(2 2)" d="M265.579 236.728L265.826 236.419C267.001 238.757 270.257 237.727 272.12 237.094L272.12 236.269C272.341 236.611 272.283 236.45 272.35 236.728C272.715 240.295 272.724 250.161 272.35 253.96C271.501 260.197 272.773 269.156 272.126 276.309C271.285 273.018 274.521 262.839 269.565 262.288L269.115 261.855C265.98 262.163 265.959 269.164 265.937 271.431C265.869 270.612 265.88 269.666 265.579 268.902C265.375 259.841 264.793 245.613 265.579 236.728Z"/>
	<path fill="#2400EE" transform="scale(2 2)" d="M321.676 319.753L152.26 319.754C146.238 319.752 140.082 320.063 134.081 319.841C128.445 319.633 125.948 313.328 134.982 313.113L301.45 313.112C305.197 313.11 322.557 312.133 324.979 313.657C328.623 315.951 326.846 319.793 321.676 319.753Z"/>
	<path fill="#2400EE" transform="scale(2 2)" d="M149.382 428.92C137.194 430.576 125.983 422.007 124.382 409.811C122.782 397.616 131.402 386.444 143.605 384.899C155.728 383.365 166.813 391.917 168.403 404.034C169.993 416.151 161.491 427.274 149.382 428.92ZM144.664 391.469C136.231 392.404 130.109 399.933 130.914 408.379C131.719 416.825 139.153 423.062 147.61 422.387C153.198 421.941 158.112 418.519 160.468 413.432C162.824 408.346 162.255 402.384 158.981 397.834C155.707 393.284 150.235 390.852 144.664 391.469Z"/>
	<path fill="#2400EE" transform="scale(2 2)" d="M308.378 429.045C296.126 429.628 285.727 420.158 285.163 407.906C284.599 395.654 294.084 385.27 306.337 384.724C318.564 384.18 328.921 393.64 329.484 405.866C330.047 418.092 320.602 428.464 308.378 429.045ZM306.461 391.37C297.855 391.904 291.311 399.311 291.84 407.916C292.369 416.522 299.771 423.072 308.377 422.548C316.991 422.025 323.548 414.614 323.019 406C322.489 397.386 315.074 390.834 306.461 391.37Z"/>
</svg>
